<?xml version="1.0" encoding="UTF-8" standalone="no"?>
<!-- Created with Inkscape (http://www.inkscape.org/) -->

<svg
   xmlns:dc="http://purl.org/dc/elements/1.1/"
   xmlns:cc="http://creativecommons.org/ns#"
   xmlns:rdf="http://www.w3.org/1999/02/22-rdf-syntax-ns#"
   xmlns:svg="http://www.w3.org/2000/svg"
   xmlns="http://www.w3.org/2000/svg"
   xmlns:sodipodi="http://sodipodi.sourceforge.net/DTD/sodipodi-0.dtd"
   xmlns:inkscape="http://www.inkscape.org/namespaces/inkscape"
   version="1.1"
   id="svg10"
   width="265.86301"
   height="183.22676"
   viewBox="0 0 265.86301 183.22676"
   sodipodi:docname="ICON-CELSA-2018-WHITE.svg"
   inkscape:version="0.92.4 (5da689c313, 2019-01-14)"
   inkscape:export-filename="C:\Users\dvilla\Pictures\Imagenes Celsa\Celsalogopng.png"
   inkscape:export-xdpi="67.5"
   inkscape:export-ydpi="67.5">
  <metadata
     id="metadata16">
    <rdf:RDF>
      <cc:Work
         rdf:about="">
        <dc:format>image/svg+xml</dc:format>
        <dc:type
           rdf:resource="http://purl.org/dc/dcmitype/StillImage" />
        <dc:title></dc:title>
      </cc:Work>
    </rdf:RDF>
  </metadata>
  <defs
     id="defs14" />
  <sodipodi:namedview
     pagecolor="#ffffff"
     bordercolor="#666666"
     borderopacity="1"
     objecttolerance="10"
     gridtolerance="10"
     guidetolerance="10"
     inkscape:pageopacity="0"
     inkscape:pageshadow="2"
     inkscape:window-width="1920"
     inkscape:window-height="1017"
     id="namedview12"
     showgrid="false"
     inkscape:zoom="1.10788"
     inkscape:cx="546.41151"
     inkscape:cy="-29.260295"
     inkscape:window-x="-8"
     inkscape:window-y="-8"
     inkscape:window-maximized="1"
     inkscape:current-layer="svg10"
     fit-margin-top="0"
     fit-margin-left="0"
     fit-margin-right="0"
     fit-margin-bottom="0" />
  <path
     style="fill:#ffffff;fill-opacity:1;stroke-width:0.63825214"
     d="m 22.6601,183.01934 c -0.877597,-0.15101 -2.500677,-0.68872 -3.606846,-1.1949 -1.106168,-0.50619 -2.189376,-0.92035 -2.407129,-0.92035 -0.886233,0 -5.962491,-3.6699 -8.4348065,-6.09798 -1.452614,-1.42663 -3.469772,-4.15656 -4.482574,-6.06653 -3.94418104,-7.43803 -3.72659604,-2.89012 -3.72659604,-77.892122 0,-47.50502 0.211039,-69.147628 0.6846,-70.207738 C 3.4304915,14.497577 5.4707985,11.105008 7.9678565,8.5328805 11.040388,5.3679795 16.723973,1.5552365 18.3693,1.5552365 c 0.54624,0 1.112822,-0.359017 1.259073,-0.79781497 0.211448,-0.634418 23.06532,-0.788541 111.587747,-0.752529 61.22701,0.02491 111.89627,0.199691 112.59835,0.388408 0.70207,0.188716 2.08503,0.67096097 3.07324,1.07165397 0.98821,0.400694 1.92781,0.728534 2.08801,0.728534 0.16019,0 1.50002,0.789837 2.97741,1.755193 3.93547,2.571529 8.40473,7.4805335 10.22727,11.2335795 3.43055,7.064289 3.65377,9.148999 3.65377,34.124197 v 23.09477 h -44.0394 c -24.22167,0 -44.0394,-0.13447 -44.0394,-0.29881 0,-0.16434 4.46053,-4.77308 9.91228,-10.24164 5.45176,-5.46855 9.76545,-10.1804 9.58599,-10.47077 -0.36338,-0.58796 -10.96508,2.99568 -21.57259,7.2921 -0.78806,0.31919 -1.11694,0.1504 -1.11694,-0.57327 0,-0.56411 0.28721,-1.02566 0.63825,-1.02566 0.35104,0 0.63825,-0.32145 0.63825,-0.71433 0,-0.66966 4.28591,-8.16337 5.06704,-8.85945 0.35438,-0.31581 1.36741,-2.07968 3.64888,-6.35341 0.64735,-1.21262 1.53601,-2.5974 1.97481,-3.07729 0.43879,-0.47989 0.79781,-1.28283 0.79781,-1.78431 0,-0.50148 0.28721,-0.91179 0.63825,-0.91179 0.35104,0 0.63826,-0.39565 0.63826,-0.87923 0,-0.48357 0.43082,-1.23677 0.95737,-1.67378 0.52656,-0.437 0.95738,-1.0466 0.95738,-1.35465 0,-1.377648 -3.36681,-0.0802 -8.6164,3.32042 -1.05312,0.6822 -2.41738,1.41412 -3.0317,1.62649 -0.61432,0.21238 -1.11694,0.63985 -1.11694,0.94995 0,0.31009 -0.33258,0.56381 -0.73908,0.56381 -0.90667,0 -13.538,7.67911 -13.83434,8.41047 -0.11702,0.28879 -0.59912,0.52506 -1.07135,0.52506 -0.47224,0 -1.25125,0.35902 -1.73114,0.79782 -0.47988,0.4388 -1.79851,1.29032 -2.93027,1.89228 l -2.05776,1.09446 0.3704,-2.37097 c 0.65126,-4.16881 1.54026,-13.1441 1.3234,-13.36095 -0.5955,-0.5955 -2.28374,0.789 -3.32912,2.73016 -0.65058,1.20804 -1.37362,2.19643 -1.60678,2.19643 -0.23315,0 -0.60413,0.71803 -0.82439,1.59563 -0.22027,0.87759 -0.68222,1.59563 -1.02657,1.59563 -0.34435,0 -0.6261,0.26729 -0.6261,0.59399 0,0.75551 -2.74676,5.08726 -3.24866,5.12327 -0.20709,0.0148 -0.72918,-1.19365 -1.16019,-2.68556 -0.43101,-1.49192 -1.0401,-3.57422 -1.35354,-4.62733 -0.31343,-1.05312 -0.764,-3.20722 -1.00126,-4.7869 -0.23726,-1.57967 -0.63971,-3.15934 -0.89433,-3.51038 -0.25462,-0.35104 -0.64873,-2.06084 -0.8758,-3.799558 -1.16391,-8.91226 -3.9842,-9.49791 -4.16764,-0.86544 -0.035,1.64672 -0.32801,3.157438 -0.65117,3.357158 -0.32315,0.19972 -0.79141,3.2386 -1.04057,6.75306 -0.24916,3.51447 -0.7028,6.54432 -1.00808,6.73299 -0.30529,0.18867 -0.55898,1.40314 -0.56377,2.69882 -0.0108,2.91938 -0.59951,5.22791 -1.33318,5.22791 -0.30511,0 -1.34816,-1.22065 -2.31788,-2.71257 -0.96972,-1.49191 -2.05084,-3.06162 -2.4025,-3.48823 -0.35166,-0.42662 -0.99839,-1.20433 -1.43719,-1.72826 -0.4388,-0.52393 -0.79782,-1.12555 -0.79782,-1.33695 0,-0.34526 -3.46161,-5.19617 -5.09656,-7.14204 -0.35624,-0.42399 -0.64771,-0.93873 -0.64771,-1.14388 0,-0.20516 -0.29064,-0.7199 -0.64587,-1.14388 -1.87688,-2.24015 -4.40721,-5.718088 -4.61615,-6.344908 -0.13115,-0.39346 -0.58052,-0.50396 -0.9986,-0.24557 -0.8744,0.54041 -1.02875,3.344378 -0.21189,3.849228 0.30155,0.18637 0.73362,1.91581 0.96014,3.8432 0.22653,1.92739 0.6655,4.16137 0.97549,4.9644 0.30999,0.80303 0.9077,3.03972 1.32825,4.97044 0.42054,1.93071 0.91909,4.06351 1.10788,4.73955 0.22919,0.82072 -0.91881,0.13145 -3.45484,-2.07432 -4.23459,-3.68314 -5.29469,-4.03263 -5.29469,-1.74552 0,0.85688 -0.28722,1.73547 -0.63826,1.95242 -0.35103,0.21696 -0.63825,1.26329 -0.63825,2.32519 v 1.93072 l -2.71257,-2.11878 c -1.49191,-1.16532 -3.03639,-2.41011 -3.43218,-2.7662 -0.39579,-0.35609 -1.36442,-1.07825 -2.15253,-1.60481 -0.7881,-0.52656 -1.75673,-1.25306 -2.15252,-1.61444 -1.84025,-1.68029 -15.0432,-11.27651 -15.49528,-11.26234 -1.08917,0.0341 -0.79689,1.15184 0.73252,2.80125 0.87848,0.94739 1.59723,1.9093 1.59723,2.13756 0,0.57809 7.77309,10.7617 8.41368,11.02286 0.28701,0.11701 0.52185,0.61963 0.52185,1.11694 0,0.4973 0.21541,0.90615 0.47869,0.90855 0.26328,0.002 1.19672,1.07945 2.07432,2.39345 0.8776,1.31399 1.81447,2.67629 2.08194,3.02733 0.26747,0.35104 1.34452,1.7548 2.39345,3.11946 1.04892,1.36467 1.90713,2.68031 1.90713,2.92366 0,0.24335 -4.21925,0.50739 -9.37613,0.58676 -9.2115,0.14177 -12.87036,0.75559 -10.09056,1.69281 0.70208,0.23671 2.18155,0.83045 3.28772,1.31943 1.10617,0.48897 2.294,0.88904 2.63962,0.88904 0.34562,0 1.45106,0.42905 2.45654,0.95345 1.00549,0.52439 2.45744,0.95521 3.22655,0.95738 0.76912,0.002 1.54843,0.24667 1.73179,0.54335 0.18335,0.29668 -4.1797,0.74482 -9.69568,0.99586 -5.51598,0.25104 -11.32152,0.55139 -12.90119,0.66745 -1.57968,0.11605 -8.4728,0.40733 -15.31805,0.64728 -6.845258,0.23995 -12.948543,0.57785 -13.56286,0.7509 -2.632453,0.74152 -0.394211,1.94772 6.861212,3.69753 4.04937,0.97661 7.218168,1.80475 13.722418,3.58627 3.02,0.82718 7.25544,1.83428 11.48854,2.73173 1.93071,0.40933 3.7976,0.92651 4.14864,1.1493 0.35103,0.22278 1.8574,0.60679 3.34748,0.85335 1.49007,0.24656 2.82964,0.64313 2.97682,0.88126 0.14718,0.23814 -2.43329,1.2902 -5.73436,2.33791 -3.30107,1.04772 -6.00491,2.12034 -6.00852,2.38362 -0.004,0.26328 -0.59987,0.47869 -1.32503,0.47869 -1.49943,0 -3.78755,1.08485 -3.78755,1.79576 0,0.26088 1.79508,0.97802 3.98907,1.59362 2.19399,0.61561 5.38633,1.54091 7.09407,2.05621 1.70774,0.51532 3.74217,0.93693 4.52095,0.93693 0.77878,0 1.62805,0.21541 1.88727,0.47869 0.25922,0.26328 1.38414,0.80514 2.49982,1.20414 1.76203,0.63014 1.87054,0.79016 0.82601,1.218062 -1.42898,0.58539 -13.12432,8.46262 -14.27935,9.61766 -1.38935,1.38934 0.3191,1.68748 3.85706,0.67308 3.81288,-1.09321 8.83501,-2.27967 11.62479,-2.7463 1.05312,-0.17616 2.56056,-0.63622 3.34986,-1.02237 2.2892,-1.11995 2.17685,-0.33305 -0.3555,2.48987 -1.29585,1.44455 -4.94102,5.85503 -8.10037,9.80106 -3.15935,3.94603 -7.39575,9.21134 -9.41422,11.70068 -2.01847,2.48934 -3.66995,4.74944 -3.66995,5.02245 0,1.24396 2.6145,0.14992 10.25337,-4.29053 4.52917,-2.63279 8.50288,-4.78689 8.83046,-4.78689 0.32759,0 0.69135,-0.21783 0.80836,-0.48407 0.11701,-0.26625 2.07964,-1.46495 4.36139,-2.66379 2.28175,-1.19885 5.43438,-2.97429 7.00584,-3.94544 1.57145,-0.97115 2.92105,-1.70187 2.9991,-1.62382 0.20916,0.20916 -1.09273,5.63846 -1.70766,7.12149 -0.29112,0.70208 -0.82065,2.42536 -1.17674,3.82951 -0.35609,1.40416 -0.84493,3.19924 -1.0863,3.98908 -0.89701,2.93529 3.23439,1.19616 7.64871,-3.21975 2.34884,-2.3497 2.57936,-1.70518 3.89095,10.87878 0.34262,3.28715 0.73857,4.62732 1.36714,4.62732 0.48666,0 1.06766,-0.50262 1.29111,-1.11694 0.22346,-0.61431 1.74798,-3.27104 3.38783,-5.90383 1.63985,-2.63279 3.58618,-5.78533 4.32519,-7.00565 0.92863,-1.53344 1.43692,-1.92772 1.64564,-1.2765 0.16609,0.51824 0.80013,2.66553 1.40897,4.77176 0.60883,2.10624 1.92494,6.34691 2.92466,9.42372 0.99972,3.07682 1.81768,6.16436 1.81768,6.86121 0,0.69686 0.23049,1.26701 0.51221,1.26701 0.28172,0 0.85385,1.50787 1.27142,3.35082 1.55898,6.88067 1.70982,7.14241 3.05545,5.30215 0.49785,-0.68086 0.90519,-2.60214 0.90519,-4.26953 0,-1.66738 0.24958,-3.18585 0.55462,-3.37437 0.30503,-0.18853 0.75308,-2.71859 0.99565,-5.62238 0.24257,-2.90378 0.70388,-6.14124 1.02513,-7.19436 0.32126,-1.05311 0.75552,-3.56623 0.96504,-5.5847 0.20951,-2.01848 0.61263,-3.66995 0.89582,-3.66995 0.28319,0 0.87062,0.93344 1.30541,2.07432 0.43479,1.14087 1.18766,2.97936 1.67306,4.08553 0.4854,1.10617 0.88255,2.47043 0.88255,3.0317 0,0.56127 0.25525,1.02048 0.56722,1.02048 0.31197,0 0.75184,0.93345 0.97749,2.07432 0.49386,2.49685 1.95866,4.5851 2.83592,4.04293 0.34982,-0.21621 0.83332,-1.97204 1.07444,-3.90186 0.24111,-1.92982 0.67876,-3.65732 0.97255,-3.83889 0.29379,-0.18158 0.72887,-2.05109 0.96684,-4.15449 0.23797,-2.10339 0.66196,-3.96606 0.9422,-4.13926 0.28024,-0.1732 0.70526,-1.88146 0.94448,-3.79613 0.5942,-4.75582 1.39421,-5.23005 4.26069,-2.52569 1.2811,1.20864 2.48043,2.19752 2.66521,2.19752 0.18477,0 1.45282,1.07705 2.81789,2.39345 2.61706,2.52374 3.61865,3.38711 8.70111,7.50043 1.73432,1.40362 4.0562,3.41368 5.15972,4.4668 4.74424,4.52755 9.8654,8.6164 10.79176,8.6164 1.26287,0 1.28091,-0.90454 0.0428,-2.1427 -0.52656,-0.52656 -0.95738,-1.12428 -0.95738,-1.32827 0,-0.20398 -1.52518,-2.4504 -3.38929,-4.99204 -1.86412,-2.54164 -4.77447,-6.70346 -6.46746,-9.24849 -1.69298,-2.54503 -3.32715,-4.62732 -3.63148,-4.62732 -0.30433,0 -0.55333,-0.29948 -0.55333,-0.66551 0,-0.36602 -1.1906,-2.27717 -2.64578,-4.24697 l -2.64579,-3.58148 2.1671,0.43192 c 1.1919,0.23756 2.26283,0.71263 2.37984,1.05571 0.11702,0.3431 0.50443,0.6238 0.86092,0.6238 0.67385,0 1.77833,0.46332 8.98051,3.76719 2.37045,1.08739 4.49998,1.97708 4.7323,1.97708 0.23231,0 2.57433,1.02145 5.20449,2.26988 5.46022,2.59174 8.41126,3.37764 8.41126,2.24001 0,-0.62645 -10.48369,-11.74418 -19.04827,-20.20028 -1.17402,-1.15915 -1.9469,-2.41121 -1.71752,-2.78236 0.28612,-0.46296 13.33411,-0.67481 41.56105,-0.67481 H 265.863 l -0.21199,25.0514 c -0.13899,16.42332 -0.47346,26.15051 -0.97113,28.24265 -0.79898,3.3587 -2.45104,7.05861 -3.79213,8.4927 -0.4388,0.46923 -0.79781,1.08085 -0.79781,1.35917 0,0.96636 -6.33214,6.93252 -8.26659,7.78879 -1.07,0.47363 -1.94545,1.07824 -1.94545,1.34359 0,0.26534 -0.35902,0.48421 -0.79781,0.48638 -0.4388,0.002 -1.65946,0.50478 -2.71258,1.11694 -1.79943,1.04597 -8.54581,1.1177 -112.01325,1.19097 -60.55417,0.0429 -110.816524,-0.0456 -111.69412,-0.1966 z"
     id="path24"
     inkscape:connector-curvature="0" />
</svg>
