<?xml version="1.0" encoding="UTF-8" standalone="no"?>
<!-- Created with Inkscape (http://www.inkscape.org/) -->

<svg
   xmlns:dc="http://purl.org/dc/elements/1.1/"
   xmlns:cc="http://creativecommons.org/ns#"
   xmlns:rdf="http://www.w3.org/1999/02/22-rdf-syntax-ns#"
   xmlns:svg="http://www.w3.org/2000/svg"
   xmlns="http://www.w3.org/2000/svg"
   xmlns:sodipodi="http://sodipodi.sourceforge.net/DTD/sodipodi-0.dtd"
   xmlns:inkscape="http://www.inkscape.org/namespaces/inkscape"
   version="1.1"
   id="svg10"
   width="891"
   height="356"
   viewBox="0 0 891 356"
   sodipodi:docname="LOGO-CELSA-2018.svg"
   inkscape:version="0.92.4 (5da689c313, 2019-01-14)">
  <metadata
     id="metadata16">
    <rdf:RDF>
      <cc:Work
         rdf:about="">
        <dc:format>image/svg+xml</dc:format>
        <dc:type
           rdf:resource="http://purl.org/dc/dcmitype/StillImage" />
        <dc:title></dc:title>
      </cc:Work>
    </rdf:RDF>
  </metadata>
  <defs
     id="defs14" />
  <sodipodi:namedview
     pagecolor="#ffffff"
     bordercolor="#666666"
     borderopacity="1"
     objecttolerance="10"
     gridtolerance="10"
     guidetolerance="10"
     inkscape:pageopacity="0"
     inkscape:pageshadow="2"
     inkscape:window-width="1920"
     inkscape:window-height="1017"
     id="namedview12"
     showgrid="false"
     inkscape:zoom="0.78338945"
     inkscape:cx="612.30809"
     inkscape:cy="110.80249"
     inkscape:window-x="-8"
     inkscape:window-y="-8"
     inkscape:window-maximized="1"
     inkscape:current-layer="svg10" />
  <path
     style="fill:#ffffff;fill-opacity:1;stroke-width:0.63825214"
     d="m 52.583002,237.69809 c -2.872754,-0.57056 -5.998331,-1.74923 -8.274436,-3.12035 -4.130387,-2.48811 -8.884342,-6.84607 -9.465459,-8.67701 -0.213091,-0.67139 -0.632477,-1.22071 -0.931968,-1.22071 -0.299491,0 -0.733777,-0.86164 -0.96508,-1.91476 -0.231303,-1.05311 -0.634249,-1.91476 -0.895436,-1.91476 -0.261186,0 -0.882435,-1.79508 -1.380552,-3.98907 -0.750502,-3.30564 -0.90649,-15.36147 -0.91047,-70.3673 -0.0026,-36.50802 0.220916,-67.383471 0.496793,-68.612106 0.275878,-1.228636 0.654616,-2.80831 0.841639,-3.510387 0.493771,-1.853592 2.358038,-5.587664 3.284093,-6.577937 0.438799,-0.469228 0.797815,-1.11984 0.797815,-1.445805 0,-2.319967 12.430208,-10.804697 15.828982,-10.804697 0.73067,0 1.505999,-0.287213 1.722953,-0.638252 0.546102,-0.883611 219.012634,-0.883611 219.558734,0 0.21696,0.351039 1.02375,0.640022 1.79287,0.642184 1.34993,0.0038 2.46841,0.481976 6.95854,2.974974 1.93006,1.071603 8.25805,7.071734 9.75791,9.25235 1.42866,2.077105 2.87271,5.16901 2.88174,6.170218 0.005,0.585869 0.4235,2.214071 0.92936,3.618226 0.73658,2.044567 0.92534,7.287868 0.94778,26.327902 l 0.028,23.77489 h -44.0394 c -24.22167,0 -44.0394,-0.21214 -44.0394,-0.47143 0,-0.25928 4.50997,-4.98802 10.02216,-10.50829 5.51218,-5.52027 9.82719,-10.23182 9.5889,-10.4701 -0.47098,-0.47099 -8.69811,2.08678 -9.68624,3.0114 -0.33348,0.31205 -1.15081,0.56736 -1.81628,0.56736 -0.66547,0 -1.97229,0.39434 -2.90405,0.8763 -4.63253,2.39624 -8.39575,3.58121 -8.39575,2.64368 0,-0.17025 0.86164,-1.70989 1.91476,-3.42142 1.05311,-1.71153 1.91475,-3.43912 1.91475,-3.8391 0,-0.39997 0.2219,-0.72722 0.49312,-0.72722 0.2712,0 1.06035,-1.07705 1.75365,-2.39345 0.6933,-1.31639 1.62025,-2.77298 2.0599,-3.23685 0.43964,-0.463872 0.79935,-1.253709 0.79935,-1.755193 0,-0.501484 0.28721,-0.911789 0.63825,-0.911789 0.35104,0 0.64148,-0.359017 0.64542,-0.797815 0.004,-0.438798 1.27369,-2.800684 2.82166,-5.248635 1.54797,-2.44795 2.67665,-4.673854 2.50818,-4.946454 -0.4455,-0.720827 -2.14574,-0.60782 -2.14574,0.142618 0,0.351038 -0.35902,0.649433 -0.79782,0.663099 -0.4388,0.01367 -2.29861,0.94711 -4.13291,2.074319 -4.39608,2.701472 -17.7679,10.839171 -20.59936,12.53617 -1.22864,0.73637 -2.73651,1.51194 -3.35082,1.72348 -0.61432,0.21154 -1.11694,0.60484 -1.11694,0.87399 0,0.26916 -0.57443,0.63959 -1.27651,0.82319 -1.04429,0.27308 -1.2765,0.0196 -1.2765,-1.39354 0,-0.95005 0.25054,-2.00021 0.55676,-2.3337 0.30622,-0.33348 0.74064,-3.14459 0.9654,-6.246902 0.31249,-4.313505 0.2246,-5.579224 -0.37355,-5.379839 -0.4302,0.143401 -2.29297,2.538049 -4.13949,5.321441 -1.84652,2.783392 -3.65225,5.40761 -4.01273,5.83159 -0.36048,0.42398 -0.65542,1.03504 -0.65542,1.35792 0,0.32287 -0.43082,0.94459 -0.95738,1.38159 -0.7955,0.66021 -0.95738,0.58349 -0.95738,-0.45373 0,-0.68655 -0.21541,-1.46279 -0.47868,-1.72498 -0.45978,-0.45787 -1.74958,-5.911884 -2.50354,-10.586333 -0.19817,-1.228636 -0.57805,-2.521096 -0.84417,-2.872135 -0.26612,-0.351039 -0.68301,-2.285203 -0.92641,-4.298141 -0.2434,-2.01294 -0.70966,-3.824974 -1.03614,-4.026744 -0.32646,-0.20177 -0.59358,-0.924331 -0.59358,-1.605691 0,-0.68136 -0.25911,-1.238837 -0.57581,-1.238837 -0.92532,0 -1.9772,3.765706 -1.9772,7.078348 0,1.682093 -0.25656,3.216917 -0.57014,3.410719 -0.31358,0.193803 -0.77967,2.999654 -1.03576,6.235225 -0.25608,3.235571 -0.70394,6.325107 -0.99525,6.865639 -0.2913,0.54053 -0.72565,2.99327 -0.96523,5.45054 -0.23957,2.45727 -0.58734,4.0397 -0.77282,3.5165 -0.18548,-0.5232 -1.51094,-2.57897 -2.94547,-4.56838 -1.43453,-1.98942 -3.03905,-4.24541 -3.56561,-5.013311 -1.98497,-2.894766 -11.67437,-16.298066 -12.18761,-16.859048 -0.95591,-1.044842 -1.4131,1.554449 -0.70068,3.983696 0.37839,1.290294 1.16088,4.50009 1.73886,7.13288 1.14656,5.222834 2.09723,9.210543 2.64891,11.111243 0.25055,0.86322 -0.64499,0.39813 -3.07239,-1.59563 -1.88431,-1.54768 -3.52176,-3.02938 -3.63877,-3.29265 -0.50534,-1.137022 -1.90498,-0.333649 -2.22393,1.2765 -0.19123,0.96536 -0.58687,2.72256 -0.8792,3.9049 l -0.53153,2.1497 -2.86318,-2.3138 c -1.57476,-1.27258 -3.1504,-2.54177 -3.50144,-2.82042 -0.35104,-0.27864 -4.08482,-3.075592 -8.29728,-6.215444 -4.21246,-3.139852 -7.80263,-5.882577 -7.97815,-6.094944 -0.69845,-0.845083 -3.13143,-1.828272 -3.4069,-1.376761 -0.22629,0.370921 5.60208,8.969976 8.97767,13.245459 0.27716,0.35104 1.50449,1.93071 2.72741,3.51039 1.22291,1.57967 2.44103,2.96787 2.70692,3.08488 0.26589,0.11701 0.48344,0.49287 0.48344,0.83524 0,0.55141 3.5391,5.46509 4.53178,6.29191 0.21072,0.17552 0.68523,0.89355 1.05445,1.59563 0.65838,1.25191 0.487,1.27424 -8.89675,1.15875 -14.44176,-0.17772 -14.92135,0.62667 -2.73095,4.58055 l 8.25608,2.67782 -17.00665,0.45919 c -9.35366,0.25256 -18.827372,0.72245 -21.052688,1.04419 -2.225319,0.32175 -6.989973,0.59077 -10.588119,0.59783 -3.598147,0.007 -6.542085,0.19658 -6.542085,0.42116 0,0.84313 2.293347,2.10483 3.861426,2.12438 0.895148,0.0112 1.924195,0.31695 2.286771,0.67952 0.362575,0.36258 2.071495,0.8268 3.7976,1.03161 1.726105,0.2048 3.425586,0.58763 3.776624,0.85075 0.351039,0.2631 1.356286,0.63375 2.233883,0.82365 5.086882,1.10072 18.071388,4.43623 22.777878,5.85127 1.82115,0.54755 3.77679,0.99553 4.34587,0.99553 1.85858,0 0.39384,1.12084 -2.0653,1.58039 -1.32027,0.24673 -2.68771,0.65085 -3.03875,0.89804 -0.35104,0.2472 -2.21793,0.96486 -4.14864,1.59481 -5.37058,1.7523 -7.020771,2.42668 -7.020771,2.86917 0,0.69466 6.052051,2.81248 10.212031,3.57354 1.22864,0.22478 2.80831,0.65253 3.51039,0.95058 0.70208,0.29804 2.64077,0.89307 4.3082,1.32228 1.66744,0.42921 3.0317,0.97626 3.0317,1.21566 0,0.44183 -3.52373,3.22834 -4.08245,3.22834 -0.16755,0 -2.19246,1.29246 -4.49981,2.87214 -2.30736,1.57967 -4.41052,2.87213 -4.67371,2.87213 -0.68826,0 -2.05623,2.34611 -1.62147,2.78087 0.20101,0.20101 0.83034,0.12144 1.3985,-0.17683 0.56816,-0.29827 2.6127,-0.75115 4.54341,-1.00639 1.93071,-0.25524 3.7976,-0.68305 4.14864,-0.95068 0.35104,-0.26762 1.49989,-0.64862 2.55301,-0.84664 1.05311,-0.19802 3.20721,-0.64 4.78689,-0.98217 3.24929,-0.70384 3.60233,-0.61214 2.41466,0.62717 -0.46056,0.48059 -1.83851,2.16531 -3.06209,3.74381 -2.80579,3.61965 -4.24704,5.37209 -6.85203,8.33148 -1.14088,1.29608 -2.07432,2.55083 -2.07432,2.78832 0,0.2375 -0.65655,1.06433 -1.45899,1.8374 -0.80244,0.77308 -2.44979,2.69806 -3.66077,4.27773 -1.21098,1.57967 -2.49313,3.22118 -2.84922,3.6478 -0.35609,0.42662 -1.00645,1.20433 -1.44524,1.72826 -0.916,1.09369 -1.0502,2.28297 -0.25763,2.28297 0.64251,0 4.74673,-1.97402 5.20408,-2.50301 0.32331,-0.37397 2.32494,-1.52184 6.38204,-3.65991 1.22837,-0.64734 2.37722,-1.32059 2.55301,-1.49611 0.17578,-0.17552 1.75567,-1.03716 3.51087,-1.91476 1.75519,-0.87759 3.287,-1.81104 3.40401,-2.07432 0.11701,-0.26327 0.47097,-0.47868 0.78657,-0.47868 0.31561,0 2.45083,-1.14886 4.74495,-2.55301 2.29411,-1.40416 4.41811,-2.55301 4.71998,-2.55301 0.30188,0 0.90641,-0.43082 1.34341,-0.95738 1.50256,-1.81047 1.79555,-0.95106 0.81598,2.39345 -0.53979,1.84295 -1.21469,3.92525 -1.49979,4.62732 -0.28509,0.70208 -0.71185,2.28175 -0.94834,3.51039 -0.23651,1.22864 -0.71619,2.58924 -1.06596,3.02357 -0.69786,0.86655 -0.23448,2.7207 0.67995,2.7207 0.62716,0 7.16833,-5.00023 7.88729,-6.02924 0.24419,-0.34949 0.67501,-0.40476 0.95738,-0.12282 0.5683,0.56746 2.01804,10.81813 2.07364,14.66209 0.0377,2.60523 0.98993,2.91937 2.22367,0.73359 0.37611,-0.66635 1.01596,-1.57632 1.42188,-2.02214 0.40593,-0.44582 1.12227,-1.67861 1.59188,-2.73953 0.46961,-1.06092 1.07093,-1.92894 1.33628,-1.92894 0.26535,0 0.48245,-0.41031 0.48245,-0.91179 0,-0.50149 0.35901,-1.2957 0.79781,-1.76493 0.4388,-0.46923 1.34123,-1.91755 2.00538,-3.21851 1.23864,-2.42621 2.30282,-2.63996 2.30282,-0.46254 0,0.67425 0.3958,2.30878 0.87956,3.63228 0.48376,1.3235 1.38114,4.12964 1.99418,6.23588 0.61305,2.10623 1.3607,4.31959 1.66145,4.91858 0.30076,0.59898 0.73357,2.25682 0.96179,3.68409 0.22824,1.42727 0.66446,2.74922 0.96938,2.93768 0.30493,0.18845 0.55442,0.86714 0.55442,1.50819 0,2.13279 2.09676,7.69465 2.9008,7.69465 1.10898,0 1.56696,-1.5076 1.56696,-5.15822 0,-1.72648 0.23359,-3.13906 0.51908,-3.13906 0.2855,0 0.84233,-2.65672 1.23741,-5.90383 1.9832,-16.29978 2.34401,-17.74809 3.67345,-14.7452 0.4433,1.00133 1.26981,2.86925 1.83667,4.15094 0.56687,1.28168 1.03067,2.64985 1.03067,3.04035 0,0.39051 0.2733,1.20875 0.60734,1.8183 0.33403,0.60956 1.08479,2.18533 1.66835,3.50173 1.50347,3.39151 2.62191,3.05276 3.16103,-0.95738 0.24776,-1.84295 0.67338,-3.63804 0.9458,-3.98908 0.27243,-0.35104 0.70634,-2.20646 0.96425,-4.12317 0.25791,-1.9167 0.69553,-3.9272 0.97249,-4.46776 0.27696,-0.54057 0.86201,-2.63433 1.30011,-4.6528 0.69858,-3.2186 1.93223,-4.72479 2.6138,-3.19126 0.11701,0.26328 2.36685,2.34558 4.99964,4.62733 2.63279,2.28175 4.88263,4.36405 4.99964,4.62733 0.11702,0.26328 0.48974,0.47869 0.82829,0.47869 0.33855,0 1.24806,0.65374 2.02113,1.45275 0.77308,0.79902 3.5597,3.28107 6.19249,5.51566 2.63279,2.23459 4.88262,4.30938 4.99964,4.61063 0.11701,0.30127 0.61964,0.54775 1.11694,0.54775 0.4973,0 0.90419,0.22575 0.90419,0.50166 0,0.59427 5.10393,4.60435 5.86029,4.60435 0.28723,0 0.52223,-0.29884 0.52223,-0.66409 0,-0.75567 -2.62415,-4.65084 -3.35082,-4.9738 -0.26328,-0.11702 -0.47869,-0.61964 -0.47869,-1.11694 0,-0.49731 -0.21541,-0.91192 -0.47869,-0.92136 -0.26328,-0.009 -1.18266,-1.15829 -2.04307,-2.55301 -0.8604,-1.39471 -1.79384,-2.53584 -2.07431,-2.53584 -0.28047,0 -0.50995,-0.3919 -0.50995,-0.87089 0,-0.47899 -0.85705,-1.84325 -1.90456,-3.0317 -1.04751,-1.18844 -1.90915,-2.45095 -1.91476,-2.80558 -0.006,-0.35463 -0.65642,-1.3751 -1.44626,-2.26772 -0.78984,-0.89263 -1.72328,-2.10293 -2.07432,-2.68956 -0.35104,-0.58663 -1.58954,-2.36648 -2.75223,-3.95523 -2.04706,-2.7972 -1.92897,-3.53254 0.36745,-2.288 1.80475,0.97808 12.3751,5.78189 12.72253,5.78189 0.17579,0 1.22467,0.40939 2.33084,0.90975 12.57428,5.68779 14.43402,6.38944 15.11924,5.70421 0.34618,-0.34618 -3.19728,-4.4548 -8.81764,-10.22402 -5.16802,-5.3049 -10.23998,-10.5402 -11.27101,-11.63401 l -1.8746,-1.98874 h 41.92492 41.92493 v 24.30839 c 0,21.00821 -0.1503,24.88583 -1.10709,28.56178 -0.6089,2.33937 -1.25513,4.39701 -1.43607,4.57252 -0.18094,0.17552 -1.04701,1.70501 -1.92461,3.39886 -1.66125,3.2064 -9.04968,10.59521 -10.66378,10.66435 -0.2781,0.0119 -1.65448,0.57659 -3.05864,1.25485 -1.40415,0.67825 -3.32589,1.24294 -4.27053,1.25484 -0.94464,0.0119 -1.88641,0.29491 -2.09282,0.62889 -0.23506,0.38035 -40.25056,0.59891 -107.10446,0.58496 -90.143879,-0.0188 -107.446587,-0.16474 -111.345818,-0.93916 z"
     id="path24"
     inkscape:connector-curvature="0" />
  <path
     style="fill:#ffffff;fill-opacity:1;stroke-width:0.63825214"
     d="m 55.923136,238.32398 c -0.702077,-0.13928 -2.815894,-0.56527 -4.697371,-0.94665 -7.179531,-1.4553 -14.893058,-7.66254 -18.629652,-14.99164 -3.211146,-6.29848 -3.219335,-6.51007 -3.023604,-78.12544 0.193422,-70.770734 0.04435,-67.290132 3.157369,-73.718126 2.341354,-4.834597 3.008376,-5.643632 7.893265,-9.573782 3.470955,-2.792567 6.116957,-4.230699 10.513102,-5.713991 2.523777,-0.851541 16.032311,-0.96908 111.375005,-0.96908 117.45304,0 109.53101,-0.221493 117.10636,3.274194 3.68121,1.698718 10.8939,8.962993 12.57361,12.663533 3.07179,6.767447 3.01586,6.209121 3.24477,32.391292 l 0.21903,25.0514 h -44.0735 c -24.24043,0 -44.0735,-0.20382 -44.0735,-0.45293 0,-0.24911 4.3082,-4.79362 9.57378,-10.0989 5.26558,-5.30527 9.57379,-9.96403 9.57379,-10.35279 0,-0.47637 -0.5723,-0.53096 -1.7552,-0.1674 -3.97492,1.22165 -11.50785,3.98841 -14.08852,5.17456 -2.95243,1.35702 -6.49511,2.25408 -6.49511,1.64466 0,-0.20395 0.86164,-1.83217 1.91476,-3.61826 1.05311,-1.78609 1.91475,-3.39757 1.91475,-3.58106 0,-0.18349 0.71804,-1.27501 1.59563,-2.4256 0.8776,-1.15059 1.59563,-2.27522 1.59563,-2.49918 0,-0.22396 1.10065,-2.207348 2.44589,-4.407523 3.56312,-5.827617 5.85139,-10.021616 5.85139,-10.724613 0,-0.722013 -1.70961,-0.837826 -2.02113,-0.136915 -0.11701,0.263279 -1.218,1.027699 -2.44663,1.698712 -1.22864,0.671012 -8.09111,4.788612 -15.24995,9.150221 -7.15884,4.361608 -13.44009,8.092908 -13.95833,8.291778 -0.76733,0.29445 -0.87291,-0.10089 -0.56869,-2.12945 0.89246,-5.951172 1.59715,-12.693403 1.35229,-12.938267 -0.5625,-0.562502 -2.30354,1.528699 -6.41706,7.707691 l -4.2673,6.409976 -0.76432,-1.83521 c -0.42039,-1.00937 -0.94449,-2.696856 -1.16468,-3.749972 -0.22019,-1.053116 -0.86122,-3.92525 -1.42453,-6.382521 -3.74705,-16.345731 -3.55992,-15.637178 -4.12981,-15.637178 -0.65306,0 -1.24393,2.066799 -1.9159,6.701648 -0.95701,6.600933 -2.43282,16.399125 -3.23174,21.456183 l -0.76805,4.86163 -2.88905,-4.22338 c -1.58897,-2.32285 -3.7163,-5.37223 -4.7274,-6.776382 -1.0111,-1.404154 -3.87808,-5.425143 -6.37107,-8.93553 -2.49299,-3.510386 -4.64008,-6.50698 -4.77132,-6.659097 -0.13123,-0.152117 -0.54995,0.03476 -0.93047,0.41528 -0.48761,0.487612 -0.4967,1.32294 -0.0308,2.829585 0.36359,1.175751 1.15372,4.435436 1.75586,7.243745 0.60213,2.80831 1.48242,6.522409 1.95618,8.253559 0.47377,1.73115 0.8614,3.39891 0.8614,3.70614 0,0.71603 -1.90306,-0.62212 -5.12734,-3.60535 -1.40094,-1.2962 -2.78226,-2.211428 -3.0696,-2.033844 -0.28733,0.177584 -0.87971,1.919374 -1.31638,3.870634 -0.53748,2.40172 -1.03629,3.40454 -1.54415,3.10441 -1.08799,-0.64296 -10.90377,-8.044893 -11.28139,-8.507109 -0.17551,-0.214841 -3.32776,-2.622091 -7.00499,-5.349443 -9.48051,-7.031574 -9.36156,-6.273055 1.22783,7.830132 3.00192,3.99802 5.87269,7.87541 6.3795,8.61641 0.5068,0.741 1.82641,2.49612 2.93247,3.90028 1.10605,1.40415 2.34875,3.19133 2.76154,3.9715 0.70725,1.3367 0.63016,1.41208 -1.33684,1.30725 -5.38949,-0.28725 -18.3628,0.20669 -18.3628,0.69912 0,0.52725 2.94054,1.72535 12.12679,4.94095 l 4.14864,1.45221 -8.29728,0.0651 c -4.5635,0.0358 -12.17466,0.33397 -16.91368,0.66262 -4.739023,0.32865 -13.283624,0.79197 -18.988002,1.02962 -5.704379,0.23765 -10.371598,0.65741 -10.371598,0.93279 0,0.9894 0.688263,1.23703 9.573783,3.44465 6.172188,1.53348 21.262597,5.43839 24.891837,6.4412 7.47261,2.06479 9.22895,2.70052 8.29727,3.00336 -8.7808,2.85414 -15.9563,5.6308 -15.9563,6.17451 0,0.60122 2.14028,1.432 7.3399,2.8491 2.10623,0.57403 4.69115,1.30234 5.74427,1.61847 1.05312,0.31613 3.13541,0.89226 4.62733,1.28029 1.49191,0.38802 2.71257,0.96516 2.71257,1.28251 0,0.31736 -2.2259,2.02841 -4.94645,3.80235 -8.95877,5.84155 -10.21328,6.78851 -9.68996,7.31437 0.40964,0.41161 6.61758,-0.78308 14.547,-2.79949 2.93465,-0.74627 5.49863,-1.19396 5.69774,-0.99485 0.1991,0.1991 -0.37559,1.14884 -1.27711,2.11054 -0.90151,0.96169 -3.69464,4.33346 -6.20695,7.4928 -2.51232,3.15935 -5.04804,6.3187 -5.63493,7.02078 -5.64178,6.74907 -9.62357,12.08906 -9.34742,12.53588 0.38183,0.61781 1.77234,-0.0528 10.20657,-4.92204 3.3012,-1.90586 6.11368,-3.4652 6.24996,-3.4652 0.40349,0 15.98382,-9.02919 16.64507,-9.64623 1.3983,-1.30483 1.4653,-0.32339 0.25548,3.74239 -0.70507,2.36951 -1.70897,5.74427 -2.23087,7.49947 -1.87897,6.31903 -1.3175,6.6129 4.17636,2.18589 2.22122,-1.78988 4.27051,-3.01393 4.55397,-2.72011 0.28347,0.29382 0.89808,4.06037 1.36579,8.37011 0.83056,7.65316 1.46747,9.21511 2.76147,6.77229 0.82797,-1.56304 7.30985,-12.32565 8.38381,-13.92059 0.92904,-1.37973 0.78703,-1.63407 2.46698,4.41842 0.58462,2.10624 1.28976,4.26976 1.567,4.80784 0.27723,0.53809 0.72071,1.96473 0.9855,3.17032 0.26479,1.20558 0.71254,2.63222 0.995,3.17031 0.28246,0.53808 0.79944,2.12718 1.14885,3.53133 0.97503,3.91828 2.41683,8.73423 3.23171,10.79466 1.03609,2.61974 2.11623,1.3027 2.71008,-3.30449 0.42582,-3.30355 0.8637,-6.17498 3.0402,-19.93608 0.36089,-2.28176 0.66193,-4.50766 0.66899,-4.94646 0.0334,-2.07693 1.34073,-0.36176 2.91887,3.82951 2.94825,7.83003 4.95874,12.00484 5.66922,11.77221 0.37367,-0.12235 1.05825,-1.92361 1.52128,-4.00279 3.62121,-16.26042 4.62926,-20.05577 5.32687,-20.05577 0.35167,0 3.01289,2.0823 5.91382,4.62733 2.90094,2.54503 5.96452,5.17651 6.80797,5.84774 0.84344,0.67121 3.40042,2.8497 5.68217,4.84107 2.28175,1.99138 4.86667,4.21644 5.74427,4.94461 0.8776,0.72817 3.15813,2.64247 5.06787,4.25401 4.96446,4.1893 5.97791,3.87713 2.59115,-0.79814 -1.05311,-1.45378 -1.91475,-2.80135 -1.91475,-2.99458 0,-0.19324 -0.59185,-0.98557 -1.31522,-1.76072 -0.72337,-0.77517 -3.15811,-4.13791 -5.41052,-7.47278 -2.25241,-3.33487 -5.54667,-8.14569 -7.32057,-10.69072 -1.7739,-2.54503 -2.97098,-4.62733 -2.66018,-4.62733 0.44475,0 15.56958,6.52918 22.13163,9.55394 2.01147,0.92717 6.91119,2.98448 8.11727,3.4083 2.82377,0.99226 1.29601,-1.42116 -5.04553,-7.97046 -7.76647,-8.02091 -10.52878,-10.90455 -13.24362,-13.82529 l -1.8746,-2.01678 h 41.92492 41.92493 v 24.37237 c 0,27.33901 -0.26468,29.5706 -4.31346,36.3673 -4.20054,7.05149 -9.01893,10.51316 -19.26963,13.84394 -1.5934,0.51774 -31.56956,0.69748 -108.50287,0.65059 -58.46567,-0.0356 -106.875646,-0.17875 -107.577724,-0.31803 z"
     id="path26"
     inkscape:connector-curvature="0" />
  <path
     style="fill:#ffffff;fill-opacity:1;stroke-width:0.63825214"
     d="m 367.92978,237.92375 c -0.16269,-0.26328 -1.49951,-0.49129 -2.97071,-0.5067 -1.4712,-0.0154 -3.82376,-0.44191 -5.22791,-0.94777 -1.40416,-0.50586 -2.92778,-0.92408 -3.38584,-0.92936 -1.70198,-0.0197 -7.1252,-2.93973 -11.23752,-6.05076 -8.05847,-6.09632 -12.64381,-13.4834 -16.25712,-26.19059 -1.48162,-5.21051 -1.87452,-17.61488 -1.82961,-57.76182 0.0458,-40.90957 0.38902,-51.596363 1.81424,-56.485314 3.11852,-10.697553 6.02799,-16.372529 11.16437,-21.776314 2.85066,-2.999065 9.09037,-7.295887 12.39158,-8.533157 1.22863,-0.460484 3.09552,-1.200831 4.14864,-1.645215 7.60574,-3.209403 31.96198,-3.400199 39.57163,-0.309988 0.70208,0.285108 2.56897,1.047374 4.14864,1.693926 8.67748,3.551644 15.75183,10.439216 19.89267,19.367453 4.45465,9.60486 5.12889,13.665516 5.4369,32.744309 l 0.24472,15.15848 h -18.81132 -18.81131 l -0.21804,-16.43499 c -0.19979,-15.058458 -0.32666,-16.637942 -1.5148,-18.858116 -1.96691,-3.675386 -4.51013,-4.916775 -10.07294,-4.916775 -4.18144,0 -4.95487,0.202232 -7.31667,1.913105 -2.10991,1.528413 -2.72356,2.429647 -3.05173,4.481911 -0.22592,1.412843 -0.66025,2.722998 -0.96518,2.911454 -0.72579,0.448559 -0.72579,102.206411 0,102.654971 0.30493,0.18845 0.73007,1.44113 0.94476,2.78373 0.54443,3.40468 2.97775,5.32808 7.91422,6.25574 3.24458,0.60973 4.4848,0.58543 6.55678,-0.12843 3.51411,-1.2107 5.0362,-2.24811 5.50442,-3.75163 0.21891,-0.70295 0.71833,-1.48273 1.10981,-1.73285 0.49066,-0.31347 0.77445,-6.51008 0.91347,-19.94538 l 0.20167,-19.49061 h 18.78633 18.78633 v 17.56059 c 0,9.90162 -0.26474,18.04396 -0.60699,18.66888 -0.33384,0.60955 -0.78477,2.75523 -1.00205,4.76817 -0.21728,2.01294 -0.66217,3.82497 -0.98864,4.02674 -0.32647,0.20177 -0.59358,0.92823 -0.59358,1.61435 0,0.68612 -0.26351,1.74622 -0.58556,2.35578 -0.32206,0.60955 -1.35682,2.6673 -2.29947,4.57277 -2.76092,5.58095 -2.98238,5.89075 -7.32701,10.24991 -4.26617,4.28043 -9.62621,8.3053 -11.06042,8.3053 -0.44609,0 -1.08392,0.24569 -1.41741,0.54599 -0.98469,0.88671 -7.33004,2.75531 -11.45662,3.3738 -4.88202,0.73172 -20.13224,1.02034 -20.52273,0.38841 z"
     id="path28"
     inkscape:connector-curvature="0" />
  <path
     style="fill:#ffffff;fill-opacity:1;stroke-width:0.63825214"
     d="m 446.21433,146.86546 c 0,-48.765669 0.17433,-89.119162 0.38741,-89.67443 0.3478,-0.906362 4.65453,-1.009579 42.12464,-1.009579 h 41.73723 v 16.913681 16.913682 h -23.30585 -23.30584 l 0.1692,18.634126 0.16921,18.63413 18.82844,-0.0758 c 10.35564,-0.0417 19.61827,0.0816 20.58363,0.27409 l 1.75519,0.34992 v 16.19565 16.19565 H 504.6144 483.8712 v 21.06232 21.06232 h 24.25358 24.25359 v 16.59456 16.59455 h -43.08202 -43.08202 z"
     id="path30"
     inkscape:connector-curvature="0" />
  <path
     style="fill:#ffffff;fill-opacity:1;stroke-width:0.63825214"
     d="M 552.16418,145.85588 V 56.181451 h 18.82573 18.82572 l 0.16228,72.601179 0.16228,72.60118 20.10494,0.31913 20.10494,0.31913 0.17016,16.75412 0.17016,16.75411 h -39.2631 -39.26311 z"
     id="path32"
     inkscape:connector-curvature="0" />
  <path
     style="fill:#ffffff;fill-opacity:1;stroke-width:0.31912607"
     d="m 683.19162,237.62926 c -1.84295,-0.0639 -3.63803,-0.26113 -3.98907,-0.43838 -0.78587,-0.39682 -4.63064,-1.28953 -6.44902,-1.49739 -0.73865,-0.0844 -1.51017,-0.35494 -1.71449,-0.60113 -0.20432,-0.24618 -0.86103,-0.44761 -1.45937,-0.44761 -0.67261,0 -1.158,-0.18272 -1.27157,-0.47869 -0.1047,-0.27286 -0.58066,-0.47869 -1.10692,-0.47869 -0.50778,0 -0.92324,-0.12956 -0.92324,-0.2879 0,-0.15835 -0.39492,-0.44877 -0.8776,-0.64538 -1.20083,-0.48912 -2.76954,-1.40885 -2.89872,-1.69951 -0.0585,-0.13164 -0.28756,-0.23934 -0.50901,-0.23934 -0.22145,0 -0.66256,-0.28722 -0.98025,-0.63825 -0.31768,-0.35104 -0.76597,-0.63826 -0.9962,-0.63826 -0.23023,0 -0.89591,-0.46672 -1.4793,-1.03716 -1.42096,-1.38941 -3.53088,-3.10253 -3.82724,-3.10748 -0.13164,-0.002 -0.24268,-0.1835 -0.24675,-0.4029 -0.006,-0.34171 -0.83669,-1.41617 -2.65118,-3.43061 -0.23715,-0.26328 -0.70532,-0.98131 -1.0404,-1.59563 -0.33507,-0.61432 -0.78872,-1.23178 -1.00812,-1.37214 -0.2194,-0.14036 -0.39891,-0.53979 -0.39891,-0.88761 0,-0.34783 -0.21541,-0.71508 -0.47869,-0.8161 -0.26328,-0.10104 -0.47869,-0.41021 -0.47869,-0.68705 0,-0.60999 -1.21598,-3.1828 -1.62324,-3.4345 -0.16033,-0.0991 -0.29152,-0.57056 -0.29152,-1.0477 0,-0.47715 -0.1974,-1.15081 -0.43868,-1.49702 -0.24128,-0.34621 -0.54099,-1.23905 -0.66602,-1.98409 -0.12504,-0.74504 -0.3415,-1.42517 -0.48104,-1.51141 -0.13954,-0.0862 -0.35293,-1.08335 -0.47421,-2.21581 -0.12307,-1.14925 -0.42172,-2.226 -0.6759,-2.43696 -0.34247,-0.28422 -0.45541,-1.22369 -0.45541,-3.78826 0,-2.50453 -0.12444,-3.57485 -0.46854,-4.02979 -0.38572,-0.50996 -0.46956,-2.19889 -0.47433,-9.55499 -0.003,-4.91454 0.0808,-9.25865 0.18664,-9.65356 l 0.19242,-0.71804 h 17.99341 17.9934 v 9.0341 c 0,7.4493 0.0822,9.14277 0.46854,9.65356 0.29019,0.38368 0.4724,1.36379 0.47869,2.57493 0.007,1.3389 0.16108,2.08073 0.48884,2.35274 0.26327,0.2185 0.47868,0.79293 0.47868,1.27651 0,0.48357 0.21541,1.058 0.47869,1.2765 0.26328,0.2185 0.47869,0.61429 0.47869,0.87953 0,0.68641 3.04066,3.5903 4.66459,4.45479 0.75326,0.40099 1.73517,0.72908 2.182,0.72908 0.44684,0 0.81244,0.15495 0.81244,0.34433 0,0.42723 3.81231,0.24465 6.54744,-0.31356 1.52803,-0.31186 2.33664,-0.7297 3.96002,-2.0463 1.12195,-0.90993 2.19659,-1.94164 2.38809,-2.29268 0.1915,-0.35103 0.46097,-0.72167 0.59883,-0.82363 0.54924,-0.40623 1.50492,-2.58022 1.70204,-3.8718 0.11482,-0.75238 0.33095,-1.52409 0.48029,-1.71492 0.42124,-0.53828 0.42337,-7.07343 0.003,-7.58058 -0.19816,-0.23877 -0.45067,-1.09346 -0.56112,-1.89931 -0.11046,-0.80585 -0.39786,-1.5408 -0.63867,-1.63321 -0.2409,-0.0924 -0.43792,-0.53604 -0.43792,-0.98586 0,-0.44981 -0.21541,-0.90051 -0.47869,-1.00153 -0.26328,-0.10104 -0.47869,-0.49863 -0.47869,-0.88354 0,-0.38492 -0.16024,-0.86009 -0.35609,-1.05594 -0.39798,-0.39798 -1.0463,-1.47941 -1.53707,-2.56391 -0.17871,-0.39492 -0.47209,-0.71804 -0.65195,-0.71804 -0.17986,0 -0.32703,-0.15878 -0.32703,-0.35284 0,-0.19406 -0.32311,-0.74851 -0.71803,-1.23211 -0.39492,-0.4836 -0.92924,-1.18646 -1.18739,-1.56191 -0.25815,-0.37546 -0.65307,-0.68265 -0.8776,-0.68265 -0.22453,0 -0.40824,-0.13404 -0.40824,-0.29786 0,-0.49561 -3.0022,-3.41699 -5.3198,-5.17657 -1.19881,-0.91018 -2.55149,-2.06127 -3.00594,-2.55798 -0.45446,-0.49672 -0.99298,-0.90312 -1.19672,-0.90312 -0.20375,0 -0.37045,-0.21541 -0.37045,-0.47869 0,-0.26328 -0.1077,-0.4823 -0.23934,-0.48672 -0.13164,-0.004 -1.22818,-0.93787 -2.43674,-2.07432 -1.20858,-1.13646 -2.46514,-2.06629 -2.79236,-2.06629 -0.32722,0 -0.59495,-0.1436 -0.59495,-0.31912 0,-0.40567 -1.17814,-1.59563 -1.57977,-1.59563 -0.1668,0 -0.41811,-0.1846 -0.55847,-0.41021 -0.14037,-0.22562 -0.97324,-0.97956 -1.85084,-1.67542 -0.87759,-0.69586 -1.71047,-1.44471 -1.85083,-1.66411 -0.14036,-0.21939 -0.4538,-0.3989 -0.69653,-0.3989 -0.24273,0 -0.53248,-0.28722 -0.6439,-0.63825 -0.11141,-0.35104 -0.31692,-0.63826 -0.45667,-0.63826 -0.13976,0 -0.59681,-0.327 -1.01566,-0.72667 -0.41885,-0.39967 -1.28013,-1.1098 -1.91395,-1.57806 -0.63382,-0.46827 -1.75849,-1.43373 -2.49927,-2.14546 -0.74077,-0.71174 -1.47875,-1.29408 -1.63995,-1.29408 -0.1612,0 -0.29309,-0.21541 -0.29309,-0.47869 0,-0.26327 -0.12216,-0.47868 -0.27148,-0.47868 -0.38834,0 -5.79191,-5.35762 -5.79191,-5.74266 0,-0.17641 -0.14361,-0.32074 -0.31913,-0.32074 -0.41388,0 -1.59563,-1.18174 -1.59563,-1.59563 0,-0.17552 -0.12996,-0.31913 -0.2888,-0.31913 -0.15884,0 -0.66752,-0.64623 -1.13039,-1.43606 -0.46288,-0.78984 -0.94325,-1.43705 -1.06749,-1.43825 -0.12424,-0.001 -0.57943,-0.53973 -1.01153,-1.19672 -0.43209,-0.657 -1.18603,-1.71784 -1.67541,-2.35741 -0.48937,-0.63958 -0.88977,-1.39802 -0.88977,-1.68543 0,-0.28741 -0.21541,-0.60522 -0.47869,-0.70625 -0.26328,-0.10103 -0.47869,-0.53185 -0.47869,-0.95738 0,-0.42553 -0.21541,-0.85635 -0.47869,-0.95738 -0.2745,-0.10533 -0.47869,-0.58177 -0.47869,-1.11694 0,-0.53517 -0.20419,-1.01161 -0.47869,-1.11694 -0.31298,-0.1201 -0.47869,-0.61723 -0.47869,-1.43607 0,-0.81883 -0.16571,-1.31596 -0.47869,-1.43606 -0.28622,-0.10984 -0.47869,-0.59051 -0.47869,-1.19549 0,-0.55648 -0.19559,-1.29505 -0.43465,-1.64126 -0.23906,-0.34622 -0.50666,-1.39873 -0.59468,-2.33891 -0.088,-0.94019 -0.30225,-1.80183 -0.47609,-1.91476 -0.17384,-0.11293 -0.41728,-1.7132 -0.54099,-3.55615 -0.1237,-1.84295 -0.36009,-3.48725 -0.52531,-3.65399 -0.37798,-0.38146 -0.39954,-11.246004 -0.0228,-11.478851 0.15269,-0.09437 0.38176,-1.778234 0.50903,-3.741922 0.15402,-2.376421 0.38133,-3.720264 0.67975,-4.018682 0.26066,-0.260665 0.44834,-1.090399 0.44834,-1.982108 0,-0.974025 0.1747,-1.678745 0.47869,-1.931038 0.27063,-0.224598 0.47869,-0.920293 0.47869,-1.600563 0,-0.775196 0.1703,-1.268637 0.47869,-1.386976 0.27694,-0.106271 0.47869,-0.583477 0.47869,-1.13225 0,-0.521708 0.13118,-1.029635 0.29152,-1.128726 0.34906,-0.215736 1.62324,-2.78642 1.62324,-3.274939 0,-0.189084 0.21541,-0.426451 0.47869,-0.52748 0.26328,-0.10103 0.47869,-0.402365 0.47869,-0.669634 0,-0.267269 0.50262,-1.144416 1.11694,-1.949216 0.61431,-0.8048 1.11694,-1.580161 1.11694,-1.723024 0,-0.142863 0.86049,-1.173012 1.9122,-2.28922 1.05171,-1.116208 1.91335,-2.137174 1.91475,-2.268814 10e-4,-0.131639 0.14239,-0.239344 0.31329,-0.239344 0.1709,0 0.94102,-0.630296 1.71139,-1.400659 0.77036,-0.770362 1.70758,-1.498073 2.08271,-1.617135 0.37514,-0.119063 0.68206,-0.350407 0.68206,-0.514098 0,-0.163691 0.13641,-0.297621 0.30313,-0.297621 0.16672,0 0.92066,-0.410683 1.67541,-0.912629 0.75476,-0.501946 1.7672,-1.007305 2.24988,-1.123021 0.48268,-0.115716 0.8776,-0.351263 0.8776,-0.523439 0,-0.172175 0.27696,-0.313046 0.61546,-0.313046 0.3385,0 0.83086,-0.21541 1.09414,-0.478689 0.26328,-0.263279 0.66568,-0.478689 0.89423,-0.478689 0.39198,0 2.70949,-0.845111 4.94386,-1.802843 0.55309,-0.237072 1.56679,-0.431039 2.25267,-0.431039 0.68589,0 1.52582,-0.210843 1.86653,-0.46854 0.38184,-0.288807 1.36118,-0.472433 2.55301,-0.478689 1.19183,-0.0063 2.17117,-0.189883 2.55301,-0.47869 0.5103,-0.385974 2.22499,-0.470328 9.73051,-0.478689 6.25201,-0.007 9.22198,0.100783 9.46456,0.343362 0.19443,0.194431 1.33611,0.428992 2.53705,0.521245 1.20095,0.09225 2.55601,0.356069 3.01124,0.586256 0.45523,0.230186 1.59403,0.520181 2.53068,0.644431 0.93665,0.124251 2.07206,0.418505 2.52313,0.653898 0.45108,0.235393 1.03555,0.43344 1.29883,0.440103 0.26328,0.0067 0.75745,0.222958 1.09816,0.480655 0.3407,0.257697 1.00747,0.46854 1.4817,0.46854 0.47423,0 0.9449,0.21541 1.04593,0.478689 0.10103,0.263279 0.55172,0.478689 1.00154,0.478689 0.44981,0 0.90051,0.21541 1.00153,0.478689 0.10104,0.263279 0.51767,0.47869 0.92586,0.47869 0.42528,0 0.81928,0.238453 0.92276,0.55847 0.16625,0.514128 1.52368,1.356286 2.18612,1.356286 0.15494,0 0.88024,0.566975 1.61179,1.259944 0.73155,0.692969 1.86862,1.767483 2.52681,2.387808 0.6582,0.620325 1.19673,1.282483 1.19673,1.471461 0,0.188979 0.1436,0.254844 0.31912,0.146367 0.17552,-0.108477 0.31913,0.01129 0.31913,0.266149 0,0.25486 0.21541,0.546041 0.47869,0.647071 0.26328,0.10103 0.47869,0.371603 0.47869,0.601274 0,0.229671 0.41242,0.869126 0.91649,1.421012 0.50407,0.551885 1.00943,1.373727 1.12302,1.826314 0.11359,0.452588 0.3474,0.822886 0.51957,0.822886 0.17218,0 0.31305,0.276956 0.31305,0.615458 0,0.338502 0.21541,0.830867 0.47869,1.094147 0.26328,0.263279 0.47869,0.840827 0.47869,1.283441 0,0.442614 0.19363,0.919593 0.43029,1.059955 0.23665,0.14036 0.52048,0.8285 0.63072,1.529198 0.11025,0.700698 0.34744,1.322994 0.5271,1.38288 0.17965,0.05988 0.32665,0.568615 0.32665,1.130509 0,0.561895 0.28721,1.8388 0.63825,2.837568 0.36106,1.027285 0.63825,2.634008 0.63825,3.699595 0,1.296086 0.15131,2.009234 0.48509,2.286242 0.41848,0.347308 0.48224,1.995932 0.46431,12.006301 l -0.0208,11.60372 h -17.51381 -17.5138 l -0.10353,-10.179 c -0.0931,-9.157598 -0.15957,-10.240865 -0.662,-10.79563 -0.30716,-0.339152 -0.55847,-0.982666 -0.55847,-1.430033 0,-0.447364 -0.21541,-0.992166 -0.47869,-1.210669 -0.26328,-0.218502 -0.47869,-0.541987 -0.47869,-0.718853 0,-0.17687 -0.77733,-1.09273 -1.7274,-2.035246 -1.38493,-1.373918 -1.93854,-1.715678 -2.79236,-1.723815 -0.58572,-0.0056 -1.34371,-0.220992 -1.68441,-0.478689 -0.88653,-0.670536 -6.32174,-0.662518 -6.88,0.01015 -0.2185,0.263279 -0.81502,0.478689 -1.3256,0.478689 -0.53078,0 -1.00698,0.204991 -1.112,0.47869 -0.10104,0.263279 -0.3546,0.478689 -0.56348,0.478689 -0.95341,0 -4.65795,4.703947 -4.65795,5.914574 0,0.48195 -0.2432,1.054105 -0.54044,1.271459 -0.76803,0.561595 -0.74662,6.600514 0.0264,7.454724 0.28271,0.31239 0.51402,1.00582 0.51402,1.54094 0,0.53513 0.21541,1.15173 0.47869,1.37024 0.26328,0.2185 0.47869,0.65665 0.47869,0.97366 0,0.31701 0.19646,0.77284 0.43658,1.01296 0.24013,0.24013 0.53039,0.73212 0.64503,1.09333 0.11464,0.3612 0.63222,1.07254 1.15018,1.58074 0.51796,0.50821 0.94573,1.08816 0.9506,1.28878 0.005,0.20062 0.22428,0.44742 0.48756,0.54845 0.26328,0.10103 0.47869,0.38367 0.47869,0.62809 0,0.24442 0.64623,1.13834 1.43606,1.98649 0.78984,0.84816 1.43607,1.58613 1.43607,1.63994 0,0.20742 1.13089,1.38884 6.14319,6.4177 7.16369,7.18735 7.05367,7.08344 7.49968,7.08344 0.21928,0 0.39868,0.21541 0.39868,0.47869 0,0.26328 0.14553,0.47869 0.32339,0.47869 0.17786,0 1.0036,0.62972 1.83498,1.39938 4.12529,3.8191 5.1129,4.66401 5.45171,4.66401 0.20244,0 0.36807,0.21541 0.36807,0.47869 0,0.26328 0.21541,0.47869 0.47869,0.47869 0.26328,0 0.47869,0.21541 0.47869,0.47869 0,0.26328 0.14361,0.47869 0.31913,0.47869 0.17552,0 1.46798,1.14885 2.87213,2.55301 1.40416,1.40415 2.62945,2.553 2.72288,2.553 0.21493,0 8.95264,8.7698 11.39845,11.44031 1.00924,1.10196 1.83498,2.13804 1.83498,2.3024 0,0.16437 0.21541,0.29884 0.47869,0.29884 0.26327,0 0.47869,0.15884 0.47869,0.35299 0,0.19414 0.43082,0.89694 0.95737,1.56177 0.52656,0.66483 0.95738,1.35227 0.95738,1.52763 0,0.17536 0.21541,0.4015 0.47869,0.50253 0.26328,0.10103 0.47869,0.47992 0.47869,0.84197 0,0.36206 0.21541,0.74095 0.47869,0.84198 0.26328,0.10103 0.47869,0.46879 0.47869,0.81724 0,0.34846 0.28721,0.99869 0.63825,1.44496 0.35104,0.44628 0.63825,1.07926 0.63825,1.40663 0,0.32736 0.13099,0.59521 0.29108,0.59521 0.16009,0 0.38673,0.56616 0.50363,1.25813 0.11691,0.69198 0.41675,1.42759 0.66631,1.63471 0.26433,0.21938 0.45374,0.9531 0.45374,1.7577 0,0.82149 0.17474,1.48455 0.43124,1.63634 0.29826,0.17651 0.4956,1.33776 0.63993,3.76559 0.11477,1.93071 0.35154,3.55826 0.52613,3.61676 0.49759,0.16674 0.42415,17.37078 -0.0763,17.87122 -0.21655,0.21655 -0.41895,0.7838 -0.44977,1.26054 -0.2034,3.14606 -0.39229,4.50267 -0.70946,5.09532 -0.19898,0.37179 -0.36178,1.3881 -0.36178,2.25845 0,1.11225 -0.14224,1.63705 -0.47869,1.76616 -0.26328,0.10103 -0.47869,0.56096 -0.47869,1.02206 0,0.46111 -0.19758,1.21955 -0.43906,1.68543 -0.87526,1.68858 -1.79482,3.79635 -1.79482,4.11398 0,0.17868 -0.21541,0.50365 -0.47869,0.72215 -0.26328,0.2185 -0.47869,0.66691 -0.47869,0.99645 0,0.32955 -0.14084,0.59918 -0.31297,0.59918 -0.17213,0 -0.63886,0.71512 -1.03716,1.58914 -0.3983,0.87403 -0.9037,1.59207 -1.1231,1.59564 -0.2194,0.004 -0.3989,0.16708 -0.3989,0.36336 0,0.45668 -6.21956,6.6639 -6.67716,6.6639 -0.18899,0 -0.34732,0.17951 -0.35185,0.3989 -0.005,0.2194 -0.6016,0.67287 -1.32683,1.00771 -0.72523,0.33484 -1.58316,0.87336 -1.90653,1.19672 -0.32335,0.32336 -0.80333,0.58793 -1.06661,0.58793 -0.26328,0 -0.47869,0.1322 -0.47869,0.29377 0,0.16157 -0.43082,0.38839 -0.95738,0.50404 -0.52656,0.11565 -0.95738,0.32966 -0.95738,0.47558 0,0.33154 -2.57835,1.59874 -3.25294,1.59874 -0.27413,0 -0.67719,0.21541 -0.8957,0.47869 -0.2185,0.26328 -0.87205,0.47869 -1.45234,0.47869 -0.58029,0 -1.27048,0.21541 -1.53376,0.47869 -0.26328,0.26328 -0.99663,0.47869 -1.62965,0.47869 -0.63304,0 -1.46903,0.19833 -1.85777,0.44072 -0.38875,0.2424 -1.62556,0.52963 -2.74847,0.63829 -1.12291,0.10865 -2.20011,0.32906 -2.39376,0.48978 -0.38433,0.31896 -14.59273,0.64494 -19.97773,0.45834 z"
     id="path34"
     inkscape:connector-curvature="0" />
  <path
     style="fill:#ffffff;fill-opacity:1;stroke-width:0.31912607"
     d="m 750.17533,235.67179 c -0.6009,-0.11554 -0.77722,-2.95755 -0.20541,-3.31095 0.24168,-0.14937 0.43636,-1.25597 0.50813,-2.88841 0.064,-1.45545 0.26674,-2.83098 0.45056,-3.05674 0.18381,-0.22575 0.40361,-1.51821 0.48844,-2.87213 0.0848,-1.35392 0.35015,-2.74493 0.58959,-3.09115 0.26366,-0.38123 0.43934,-1.51391 0.44549,-2.87213 0.007,-1.46411 0.17281,-2.45771 0.47869,-2.86212 0.31369,-0.41474 0.46854,-1.39787 0.46854,-2.97471 0,-1.66805 0.13967,-2.49492 0.47869,-2.83394 0.3343,-0.3343 0.48175,-1.16969 0.48884,-2.76956 0.007,-1.50656 0.17056,-2.50295 0.47869,-2.91033 0.29789,-0.39385 0.46854,-1.3585 0.46854,-2.64864 0,-1.11665 0.20123,-2.41831 0.44748,-2.89451 0.24612,-0.47594 0.54576,-1.93754 0.66588,-3.24801 0.12011,-1.31047 0.34729,-2.62352 0.50484,-2.9179 0.15754,-0.29438 0.38378,-1.58259 0.50276,-2.86271 0.11897,-1.28011 0.40758,-2.69397 0.64134,-3.1419 0.23376,-0.44794 0.42591,-1.69556 0.42699,-2.77249 10e-4,-1.11247 0.20784,-2.35281 0.47869,-2.87213 0.28563,-0.54768 0.48158,-1.80953 0.48884,-3.14796 0.008,-1.4537 0.17575,-2.45023 0.48065,-2.85335 0.30222,-0.39957 0.46854,-1.36814 0.46854,-2.72853 0,-1.19311 0.16328,-2.27234 0.37597,-2.48503 0.20678,-0.20678 0.44022,-1.63567 0.51874,-3.1753 0.0977,-1.915 0.28134,-2.87996 0.58141,-3.05454 0.31301,-0.18211 0.43864,-0.97067 0.43864,-2.75328 0,-1.83119 0.12779,-2.60413 0.47869,-2.89535 0.33985,-0.28206 0.47869,-1.02837 0.47869,-2.57325 0,-1.19679 0.14595,-2.26618 0.32433,-2.37642 0.17838,-0.11025 0.24784,-0.32421 0.15436,-0.47548 -0.0935,-0.15126 -0.0428,-0.35359 0.11254,-0.44962 0.15538,-0.096 0.38591,-1.35993 0.51228,-2.80865 0.12637,-1.44872 0.35236,-2.86311 0.5022,-3.14308 0.14983,-0.27997 0.37349,-1.64683 0.49702,-3.03746 0.12352,-1.39063 0.3779,-2.62768 0.56529,-2.74902 0.18738,-0.12133 0.3921,-1.27018 0.45492,-2.553 0.0628,-1.28283 0.31931,-2.78493 0.56996,-3.33802 0.25066,-0.55308 0.4603,-1.84554 0.46589,-2.87213 0.006,-1.13278 0.19433,-2.11005 0.47869,-2.48599 0.3132,-0.4141 0.46854,-1.39647 0.46854,-2.96315 0,-1.5289 0.16375,-2.5936 0.47103,-3.06257 0.29322,-0.4475 0.4949,-1.64318 0.53425,-3.16721 0.0437,-1.69166 0.19398,-2.4985 0.48634,-2.61069 0.29628,-0.11369 0.42652,-0.85898 0.43444,-2.48605 0.007,-1.40971 0.19069,-2.63748 0.46738,-3.12149 0.25084,-0.4388 0.46116,-1.61508 0.46738,-2.61396 0.006,-0.99888 0.14865,-1.90102 0.3165,-2.00476 0.16785,-0.10374 0.22359,-0.40125 0.12386,-0.66115 -0.0997,-0.25989 -0.005,-0.68471 0.21,-0.94405 0.21523,-0.25934 0.46164,-1.44226 0.54757,-2.62873 0.0859,-1.18646 0.35672,-2.772551 0.60175,-3.524642 0.24503,-0.75209 0.44551,-2.162513 0.44551,-3.134274 0,-1.145018 0.16847,-1.935302 0.47869,-2.245524 0.33184,-0.331837 0.47869,-1.145813 0.47869,-2.653297 0,-1.308318 0.18991,-2.538747 0.47672,-3.088685 0.29551,-0.566616 0.47747,-1.802213 0.47869,-3.250534 10e-4,-1.649244 0.14276,-2.477255 0.48066,-2.815148 0.34152,-0.341519 0.47869,-1.173669 0.47869,-2.903993 0,-1.680948 0.14332,-2.583672 0.46697,-2.941306 0.29391,-0.324759 0.4863,-1.280273 0.51912,-2.578136 0.0287,-1.134175 0.23062,-2.277546 0.44876,-2.540825 0.21814,-0.263279 0.47674,-1.600272 0.57466,-2.971095 0.0979,-1.370822 0.31245,-2.663283 0.47671,-2.872134 0.16426,-0.208851 0.38332,-1.535027 0.48681,-2.947057 0.10348,-1.41203 0.40828,-2.991704 0.67733,-3.510387 l 0.48918,-0.943059 24.49747,-0.159563 c 13.47362,-0.08776 24.74879,-0.106913 25.05595,-0.04256 0.45164,0.09462 0.55885,0.460897 0.56044,1.914757 9.5e-4,0.988765 0.21649,2.209088 0.47868,2.71183 0.28682,0.549938 0.47673,1.780365 0.47673,3.088684 0,1.507485 0.14685,2.321461 0.47869,2.653299 0.33146,0.331466 0.47929,1.148201 0.48065,2.655584 10e-4,1.306706 0.19253,2.542288 0.47869,3.090971 0.28233,0.541333 0.47753,1.777601 0.47869,3.031698 9.6e-4,1.164692 0.19429,2.48617 0.42936,2.936618 0.23507,0.450448 0.53027,1.954301 0.65602,3.341896 0.12574,1.387596 0.36677,2.689372 0.53563,2.892835 0.16886,0.203464 0.38339,1.569271 0.47673,3.035128 0.10598,1.664304 0.3428,2.85646 0.63063,3.174507 0.32145,0.3552 0.46093,1.286551 0.46093,3.077904 0,1.89387 0.12574,2.672943 0.47868,2.965862 0.3502,0.290641 0.47869,1.061579 0.47869,2.872135 0,1.810551 0.12849,2.581491 0.47869,2.872131 0.34424,0.2857 0.47869,1.04142 0.47869,2.69066 0,1.52244 0.1575,2.50161 0.46854,2.91283 0.31297,0.41379 0.47191,1.41708 0.47869,3.02169 0.006,1.48496 0.17547,2.64258 0.44312,3.0317 0.23813,0.34621 0.51213,1.81949 0.60887,3.27395 0.0968,1.45447 0.31447,2.81873 0.48383,3.0317 0.16936,0.21297 0.37866,1.42627 0.46512,2.69623 0.0865,1.26994 0.31679,2.50129 0.51184,2.7363 0.19505,0.23502 0.45141,1.49368 0.5697,2.79702 0.11829,1.30334 0.40885,2.92629 0.64569,3.60655 0.23684,0.68027 0.43062,2.15674 0.43062,3.28106 0,1.52269 0.12212,2.09107 0.47869,2.2279 0.37166,0.14262 0.47869,0.76891 0.47869,2.80113 0,1.80737 0.145,2.80914 0.46854,3.2369 0.31427,0.41551 0.47188,1.42089 0.47869,3.05361 0.007,1.76474 0.14179,2.54341 0.48883,2.83143 0.34318,0.28481 0.47925,1.04121 0.48066,2.67186 10e-4,1.39342 0.18665,2.62871 0.47869,3.18867 0.28373,0.54402 0.47672,1.77492 0.47672,3.04047 0,1.29068 0.17303,2.3738 0.44026,2.75587 0.24213,0.34622 0.51991,1.75225 0.61727,3.12452 0.0974,1.37227 0.31131,2.66473 0.47544,2.87214 0.16413,0.2074 0.39921,1.6674 0.5224,3.24444 0.12319,1.57705 0.38034,2.96399 0.57145,3.0821 0.1911,0.11811 0.4146,1.37444 0.49665,2.79184 0.0947,1.63606 0.30912,2.70982 0.58718,2.94059 0.30279,0.25129 0.43799,1.13249 0.43799,2.85464 0,1.78884 0.13495,2.62609 0.47869,2.96983 0.33902,0.33902 0.47869,1.16588 0.47869,2.83393 0,1.57685 0.15485,2.55998 0.46854,2.97471 0.30221,0.39956 0.47616,1.41249 0.49,2.85335 0.0126,1.31353 0.20936,2.56258 0.47753,3.0317 0.25084,0.4388 0.46204,1.65946 0.46934,2.71257 0.007,1.05312 0.2278,2.32609 0.49,2.82883 0.28232,0.54133 0.47752,1.7776 0.47869,3.0317 9.6e-4,1.16469 0.19298,2.48363 0.42643,2.93097 0.23346,0.44734 0.51974,1.94044 0.63619,3.318 0.11644,1.37757 0.33574,2.66304 0.48731,2.85661 0.15158,0.19357 0.36299,1.54255 0.46981,2.99774 0.115,1.56677 0.39309,2.92974 0.68188,3.34205 0.32717,0.4671 0.48767,1.44776 0.48767,2.97961 0,1.64034 0.13481,2.39525 0.47869,2.68064 0.35409,0.29387 0.47869,1.07656 0.47869,3.00695 0,1.43532 0.12848,2.7461 0.28551,2.91284 0.45502,0.48318 0.74105,2.29707 0.39586,2.51041 -0.17236,0.10653 -8.97607,0.21168 -19.56381,0.23368 l -19.25042,0.04 -0.24725,-1.55958 c -0.13599,-0.85777 -0.37844,-1.84679 -0.53879,-2.19783 -0.16034,-0.35104 -0.3513,-2.48338 -0.42436,-4.73854 -0.0741,-2.28631 -0.27687,-4.19227 -0.4584,-4.3082 -0.18295,-0.11684 -0.38914,-2.12129 -0.47069,-4.5758 -0.0798,-2.40233 -0.29427,-4.55643 -0.47654,-4.78689 -0.18227,-0.23045 -0.42452,-2.34509 -0.53832,-4.69918 -0.11381,-2.35409 -0.36637,-4.47229 -0.56125,-4.70711 -0.28573,-0.34428 -2.95712,-0.42599 -13.79833,-0.42205 -7.3942,0.003 -13.60899,0.11039 -13.81065,0.23934 -0.22188,0.14188 -0.45771,1.80952 -0.59729,4.22354 -0.12686,2.19399 -0.34316,4.13268 -0.48068,4.3082 -0.27502,0.35102 -0.60846,3.94036 -0.66704,7.18033 -0.0206,1.14088 -0.19415,2.26864 -0.38559,2.50613 -0.19267,0.23901 -0.40574,2.23383 -0.47722,4.46777 -0.071,2.21977 -0.26042,4.19893 -0.42089,4.39811 -0.16046,0.19919 -0.38045,1.31214 -0.48888,2.47323 -0.11222,1.2018 -0.34907,2.11446 -0.54989,2.11895 -3.16064,0.0706 -35.6321,0.12638 -35.96809,0.0618 z m 58.75197,-64.0025 c 2.36951,-0.0629 4.55951,-0.22339 4.86667,-0.35664 0.43937,-0.19061 0.55847,-0.63501 0.55847,-2.08381 0,-1.16997 -0.15944,-1.97387 -0.43722,-2.2044 -0.31618,-0.2624 -0.47788,-1.56184 -0.5841,-4.69388 -0.0888,-2.61778 -0.2841,-4.41584 -0.49376,-4.54541 -0.21242,-0.13128 -0.38272,-1.80733 -0.43937,-4.32402 -0.0574,-2.55123 -0.23162,-4.24877 -0.45937,-4.47652 -0.21922,-0.21921 -0.42958,-1.99483 -0.52269,-4.41195 -0.0857,-2.22479 -0.30411,-4.23022 -0.48534,-4.4565 -0.18123,-0.22628 -0.39664,-2.23677 -0.47869,-4.46776 -0.082,-2.23099 -0.30012,-4.24149 -0.48461,-4.46777 -0.18448,-0.22628 -0.43922,-2.2783 -0.56608,-4.56006 -0.12687,-2.28175 -0.35798,-4.39197 -0.51359,-4.68938 -0.15561,-0.29741 -0.37392,-2.3079 -0.48513,-4.46776 -0.11719,-2.27601 -0.38479,-4.28933 -0.63651,-4.78877 -0.31304,-0.62113 -0.43486,-2.31417 -0.43628,-6.0634 -0.002,-3.99046 -0.11297,-5.41449 -0.47869,-6.11572 -0.35772,-0.685909 -0.47672,-2.047681 -0.47672,-5.455465 0,-4.092601 -0.0613,-4.596874 -0.62042,-5.102865 -0.34124,-0.308811 -0.66435,-0.869596 -0.71804,-1.246184 -0.14591,-1.023545 -1.01678,-0.8341 -1.25344,0.272671 -0.1126,0.526558 -0.22171,2.776397 -0.24248,4.999643 -0.0215,2.300012 -0.17165,4.08811 -0.34841,4.148639 -0.17086,0.0585 -0.40969,1.966091 -0.53074,4.239081 -0.12732,2.3909 -0.39907,4.47567 -0.64476,4.94645 -0.2857,0.54747 -0.42531,2.093 -0.42664,4.72305 -9.5e-4,2.15011 -0.12902,3.90929 -0.28432,3.90929 -0.3707,0 -0.69214,2.69967 -0.71024,5.96517 -0.0103,1.85662 -0.14602,2.7235 -0.46832,2.99099 -0.34556,0.28678 -0.45384,1.27723 -0.45384,4.15123 0,2.86903 -0.10542,3.8358 -0.43944,4.02978 -0.3188,0.18514 -0.47803,1.26268 -0.58004,3.92515 -0.0773,2.01847 -0.31169,3.95716 -0.52079,4.3082 -0.2091,0.35104 -0.5161,2.43334 -0.68224,4.62733 -0.16614,2.19399 -0.43925,4.99432 -0.60692,6.22296 -0.16767,1.22864 -0.34173,2.95192 -0.3868,3.82951 -0.0451,0.8776 -0.22054,1.77689 -0.38991,1.99842 -0.16938,0.22153 -0.37312,2.08842 -0.45275,4.14864 -0.0828,2.14148 -0.34711,4.30189 -0.61715,5.04408 -0.25979,0.71403 -0.42691,1.93441 -0.37138,2.71195 0.10072,1.41027 0.1047,1.41449 1.63655,1.73785 1.4634,0.30892 2.67023,0.31351 12.66553,0.0482 z"
     id="path36"
     inkscape:connector-curvature="0" />
</svg>
